<?xml version="1.0" standalone="no"?>
<svg viewBox="0 0 200 200" xmlns="http://www.w3.org/2000/svg">
  <path fill="#8C61FF" d="M35.1,-60.6C49.3,-52.6,67.4,-50.9,77.3,-41.9C87.3,-32.9,89.2,-16.4,87.3,-1.1C85.4,14.2,79.7,28.4,70.5,39C61.4,49.5,49,56.4,36.7,62.7C24.3,69,12.2,74.7,-2,78.2C-16.1,81.6,-32.2,82.7,-46,77.2C-59.8,71.8,-71.3,59.8,-79.7,45.8C-88,31.8,-93.4,15.9,-92.1,0.7C-90.8,-14.5,-83,-28.9,-73.4,-40.9C-63.9,-52.8,-52.7,-62.3,-40.1,-71.3C-27.6,-80.3,-13.8,-88.9,-1.7,-85.9C10.4,-83,20.9,-68.6,35.1,-60.6Z" transform="translate(100 100)" />
</svg>
